<?xml version="1.0" encoding="UTF-8"?>
<svg xmlns="http://www.w3.org/2000/svg" xmlns:xlink="http://www.w3.org/1999/xlink" width="48px" height="48px" viewBox="0 0 48 48" version="1.1">
<g id="surface1">
<path style=" stroke:none;fill-rule:nonzero;fill:rgb(99.607843%,99.215686%,98.823529%);fill-opacity:1;" d="M 0.214844 18.988281 C 0.214844 12.65625 0.214844 6.4375 0.214844 0.214844 C 16.214844 0.214844 32.214844 0.214844 48.214844 0.214844 C 48.214844 16.214844 48.214844 32.214844 48.214844 48.214844 C 32.214844 48.214844 16.214844 48.214844 0.214844 48.214844 C 0.214844 38.507812 0.214844 28.800781 0.214844 18.988281 M 28.761719 23.421875 C 28.542969 23.53125 28.199219 23.585938 28.125 23.757812 C 27.800781 24.523438 27.488281 25.308594 27.296875 26.117188 C 27.136719 26.792969 25.484375 27.136719 26.8125 28.152344 C 26.394531 29.417969 25.996094 30.6875 25.53125 31.933594 C 25.476562 32.078125 25.027344 32.167969 24.796875 32.117188 C 24.675781 32.09375 24.542969 31.699219 24.566406 31.492188 C 24.667969 30.648438 24.933594 29.8125 24.929688 28.972656 C 24.929688 28.511719 24.632812 27.835938 24.269531 27.648438 C 23.894531 27.460938 23.269531 27.722656 22.769531 27.851562 C 22.589844 27.898438 22.457031 28.128906 22.457031 28.128906 C 22.082031 28.023438 21.789062 27.839844 21.632812 27.917969 C 21.339844 28.070312 20.988281 28.328125 20.898438 28.617188 C 20.476562 30.003906 20.1875 31.433594 19.722656 32.804688 C 19.601562 33.15625 19.015625 33.34375 18.640625 33.605469 C 18.574219 33.214844 18.402344 32.808594 18.457031 32.4375 C 18.65625 31.160156 18.933594 29.894531 19.210938 28.476562 C 17.8125 28.828125 16.316406 28.597656 15.550781 29.867188 C 14.855469 31.027344 14.28125 32.316406 13.960938 33.621094 C 13.800781 34.269531 14.117188 35.414062 14.613281 35.746094 C 15.390625 36.273438 16.074219 35.425781 16.628906 34.816406 C 16.742188 34.695312 16.847656 34.566406 16.980469 34.414062 C 17.507812 35.3125 18.199219 35.339844 19.023438 34.972656 C 19.402344 34.804688 19.820312 34.65625 20.226562 34.632812 C 20.941406 34.597656 21.179688 34.207031 21.300781 33.578125 C 21.511719 32.464844 21.71875 31.34375 22.046875 30.257812 C 22.21875 29.683594 22.636719 29.183594 22.945312 28.648438 C 23.089844 28.695312 23.234375 28.746094 23.378906 28.796875 C 23.378906 29.230469 23.429688 29.667969 23.367188 30.089844 C 23.277344 30.71875 23.070312 31.335938 22.988281 31.964844 C 22.796875 33.410156 23.75 34.125 25.085938 33.550781 C 25.40625 33.414062 25.671875 33.15625 25.984375 32.996094 C 26.199219 32.890625 26.46875 32.769531 26.6875 32.808594 C 28.613281 33.117188 29.894531 32.40625 30.542969 30.515625 C 30.878906 29.546875 31.03125 28.515625 31.355469 27.542969 C 31.480469 27.167969 31.851562 26.875 32.113281 26.546875 C 32.238281 26.613281 32.363281 26.679688 32.488281 26.742188 C 32.304688 27.773438 32.066406 28.800781 31.953125 29.835938 C 31.792969 31.265625 32.945312 32.21875 34.054688 31.425781 C 35.105469 30.671875 36.3125 31.011719 37.316406 30.402344 C 37.238281 30.621094 37.125 30.78125 36.980469 30.90625 C 36.332031 31.457031 35.648438 31.96875 35.023438 32.542969 C 34.339844 33.171875 34.207031 34.007812 34.683594 34.757812 C 35.183594 35.550781 35.996094 35.277344 36.699219 34.976562 C 37.855469 34.480469 38.230469 33.445312 38.375 32.316406 C 38.496094 31.382812 38.851562 30.71875 39.742188 30.242188 C 40.910156 29.613281 41.632812 28.558594 41.941406 27.238281 C 42.074219 26.667969 42.035156 26.257812 41.273438 26.226562 C 40.875 27.496094 40.542969 28.804688 39.023438 29.402344 C 39.375 27.449219 39.703125 25.613281 40.039062 23.761719 C 38.78125 23.832031 38.785156 23.832031 38.574219 24.867188 C 38.324219 26.082031 38.109375 27.308594 37.777344 28.5 C 37.691406 28.808594 37.21875 29.011719 36.925781 29.257812 C 36.835938 28.929688 36.640625 28.585938 36.671875 28.269531 C 36.789062 27.144531 37.046875 26.03125 37.105469 24.902344 C 37.121094 24.652344 36.554688 24.136719 36.269531 24.148438 C 35.699219 24.167969 35.476562 24.625 35.648438 25.234375 C 36.125 26.910156 35.371094 28.328125 34.632812 29.726562 C 34.519531 29.9375 34.097656 29.980469 33.820312 30.101562 C 33.714844 29.820312 33.496094 29.527344 33.53125 29.265625 C 33.667969 28.320312 33.886719 27.386719 34.074219 26.449219 C 34.238281 25.625 33.777344 25.167969 32.957031 25.371094 C 32.703125 25.433594 32.480469 25.628906 32.496094 25.621094 C 31.859375 25.390625 31.347656 25.015625 31 25.132812 C 30.667969 25.242188 30.382812 25.835938 30.292969 26.261719 C 30.019531 27.550781 29.898438 28.875 29.621094 30.164062 C 29.53125 30.578125 29.183594 30.96875 28.867188 31.289062 C 28.710938 31.441406 28.296875 31.511719 28.117188 31.410156 C 27.933594 31.308594 27.792969 30.9375 27.816406 30.699219 C 27.875 30.140625 28.054688 29.59375 28.152344 29.035156 C 28.285156 28.28125 28.269531 27.488281 29.261719 27.207031 C 29.488281 27.140625 29.574219 26.589844 29.78125 26.136719 C 29.335938 26.136719 29.082031 26.136719 28.757812 26.136719 C 28.886719 25.472656 29.035156 24.886719 29.097656 24.296875 C 29.128906 24.007812 29 23.703125 28.761719 23.421875 M 33.957031 38.277344 C 32.738281 36.597656 31.015625 37.011719 29.390625 37.253906 C 28.074219 37.453125 27.21875 38.355469 26.945312 39.621094 C 26.796875 40.320312 26.449219 40.453125 25.886719 40.492188 C 19.910156 40.910156 14.957031 38.898438 11.105469 34.273438 C 10.832031 33.941406 10.5625 33.601562 10.257812 33.234375 C 9.660156 34.640625 9.90625 35.667969 10.980469 36.691406 C 15.265625 40.761719 20.265625 42.695312 26.195312 42.089844 C 26.667969 42.042969 27.234375 41.988281 27.617188 42.195312 C 29.929688 43.460938 31.8125 43.105469 33.511719 40.988281 C 34.128906 40.21875 34.402344 39.382812 33.957031 38.277344 M 19.90625 17.882812 C 19.648438 19.09375 19.472656 20.332031 19.09375 21.507812 C 18.929688 22.015625 18.414062 22.539062 17.925781 22.773438 C 17.609375 22.925781 17.046875 22.5625 16.601562 22.433594 C 16.4375 23.929688 17.527344 24.671875 19.039062 23.980469 C 20.472656 23.328125 21.039062 22.039062 21.339844 20.597656 C 21.523438 19.710938 21.664062 18.816406 21.832031 17.886719 C 23.019531 18.078125 23.675781 18.675781 23.886719 19.730469 C 24.003906 20.324219 24.042969 20.929688 24.175781 21.519531 C 24.390625 22.460938 24.976562 22.839844 25.785156 22.605469 C 26.699219 22.339844 27.273438 21.363281 27.039062 20.679688 C 26.695312 20.785156 26.175781 21.070312 26.050781 20.949219 C 25.792969 20.703125 25.652344 20.238281 25.632812 19.859375 C 25.585938 18.867188 25.921875 17.785156 24.78125 17.195312 C 25.433594 16.660156 26.101562 16.230469 26.621094 15.660156 C 28.292969 13.832031 27.636719 11.375 25.242188 10.753906 C 24.355469 10.523438 23.34375 10.808594 22.390625 10.792969 C 20.574219 10.761719 19.21875 11.71875 18.09375 12.941406 C 17.542969 13.539062 17.179688 14.46875 17.085938 15.289062 C 16.964844 16.386719 18.03125 17.070312 19.191406 16.800781 C 18.378906 15.828125 18.371094 14.816406 19.03125 13.78125 C 19.785156 12.597656 21.296875 11.761719 22.558594 11.878906 C 20.820312 13.457031 20.234375 15.515625 19.90625 17.882812 M 38.648438 16.171875 C 38.933594 15.382812 39.222656 14.589844 39.511719 13.800781 C 39.675781 13.835938 39.839844 13.871094 40.003906 13.90625 C 40.003906 14.292969 40.039062 14.6875 39.996094 15.070312 C 39.90625 15.882812 39.722656 16.683594 39.671875 17.496094 C 39.617188 18.320312 39.972656 18.796875 40.914062 18.820312 C 42.355469 18.855469 44.292969 16.605469 43.941406 15.203125 C 43.875 14.933594 43.773438 14.675781 43.6875 14.410156 C 43.011719 15.449219 42.777344 16.15625 42.402344 16.78125 C 42.242188 17.050781 41.785156 17.148438 41.464844 17.324219 C 41.375 17.011719 41.195312 16.6875 41.210938 16.378906 C 41.242188 15.855469 41.40625 15.335938 41.5 14.8125 C 41.640625 14.035156 41.855469 13.144531 41.035156 12.683594 C 40.167969 12.199219 39.5 12.8125 38.933594 13.457031 C 38.890625 13.503906 38.8125 13.519531 38.75 13.550781 C 38.738281 13.453125 38.722656 13.359375 38.707031 13.261719 C 38.105469 13.320312 37.5 13.351562 36.902344 13.449219 C 36.277344 13.550781 35.640625 13.667969 35.050781 13.882812 C 34.886719 13.945312 34.84375 14.382812 34.777344 14.65625 C 34.511719 15.757812 34.351562 16.898438 33.957031 17.953125 C 33.753906 18.503906 33.136719 18.894531 32.707031 19.359375 C 32.648438 18.773438 32.488281 18.179688 32.554688 17.609375 C 32.6875 16.507812 32.949219 15.421875 33.195312 14.121094 C 31.953125 14.507812 30.765625 14.574219 30.003906 15.175781 C 28.3125 16.515625 27.683594 18.445312 27.949219 20.605469 C 28.066406 21.550781 28.742188 21.886719 29.5625 21.402344 C 30.066406 21.105469 30.472656 20.648438 30.925781 20.261719 C 30.914062 20.351562 30.902344 20.441406 30.886719 20.535156 C 31.492188 20.628906 32.097656 20.808594 32.695312 20.789062 C 33.203125 20.769531 33.699219 20.453125 34.214844 20.390625 C 34.871094 20.3125 35.078125 19.945312 35.214844 19.367188 C 35.523438 18.054688 35.863281 16.75 36.265625 15.464844 C 36.386719 15.078125 36.75 14.769531 37.003906 14.421875 C 37.148438 14.492188 37.289062 14.558594 37.433594 14.628906 C 37.15625 16.265625 36.882812 17.90625 36.601562 19.578125 C 37.761719 19.550781 38.179688 19.050781 38.246094 18.117188 C 38.289062 17.519531 38.488281 16.9375 38.648438 16.171875 M 16.300781 11.492188 C 16.949219 11.199219 17.65625 10.996094 18.222656 10.59375 C 18.867188 10.132812 19.707031 9.582031 19.886719 8.914062 C 20.21875 7.679688 21.015625 7.449219 22.015625 7.328125 C 22.824219 7.226562 23.640625 7.101562 24.453125 7.097656 C 29.175781 7.082031 33.269531 8.683594 36.632812 12.023438 C 37.394531 12.785156 38.210938 12.386719 39.078125 12.53125 C 39.015625 12.265625 39.015625 12.183594 38.980469 12.132812 C 38.851562 11.964844 38.71875 11.792969 38.574219 11.640625 C 33.710938 6.46875 27.796875 4.542969 20.820312 5.90625 C 20.378906 5.992188 19.792969 6.234375 19.507812 6.046875 C 17.621094 4.808594 15.96875 5.738281 14.292969 6.492188 C 14.097656 6.582031 14.003906 6.894531 13.863281 7.105469 C 14.140625 7.144531 14.445312 7.285156 14.683594 7.207031 C 15.421875 6.964844 16.121094 6.613281 16.859375 6.375 C 17.121094 6.289062 17.453125 6.402344 17.75 6.425781 C 16.839844 7.074219 15.902344 7.449219 14.996094 7.894531 C 14.777344 8.003906 14.667969 8.335938 14.507812 8.5625 C 14.789062 8.578125 15.089844 8.671875 15.339844 8.597656 C 15.8125 8.457031 16.253906 8.210938 16.714844 8.027344 C 17.269531 7.808594 17.832031 7.613281 18.390625 7.410156 C 18.445312 7.539062 18.496094 7.667969 18.550781 7.800781 C 17.554688 8.269531 16.546875 8.714844 15.574219 9.222656 C 15.359375 9.335938 15.269531 9.679688 15.121094 9.917969 C 15.378906 9.933594 15.671875 10.042969 15.886719 9.957031 C 16.828125 9.570312 17.746094 9.128906 18.671875 8.707031 C 18.738281 8.773438 18.804688 8.835938 18.871094 8.902344 C 18.628906 9.175781 18.4375 9.535156 18.136719 9.707031 C 17.496094 10.078125 16.792969 10.332031 16.132812 10.667969 C 15.609375 10.9375 15.371094 11.253906 16.300781 11.492188 M 5.90625 36.734375 C 5.445312 36.621094 4.980469 36.511719 4.527344 36.402344 C 4.449219 37.585938 4.726562 37.925781 5.929688 38.011719 C 7.421875 38.125 8.824219 36.863281 9.167969 35.089844 C 9.34375 34.160156 9.492188 33.222656 9.652344 32.285156 C 11.910156 32.28125 13.574219 31.3125 14.789062 29.582031 C 15.871094 28.042969 15.589844 26.164062 14.191406 25.109375 C 11.558594 23.121094 5.558594 25.40625 4.941406 28.636719 C 4.691406 29.949219 5.734375 31.003906 7.015625 30.730469 C 5.761719 28.367188 7.375 25.929688 10.53125 25.652344 C 8.875 27.207031 8.21875 29.117188 7.910156 31.1875 C 7.765625 32.171875 7.710938 33.191406 7.398438 34.121094 C 7.09375 35.019531 6.511719 35.824219 5.90625 36.734375 M 8.117188 20.847656 C 8.769531 17.863281 10.214844 15.316406 12.308594 13.109375 C 13.113281 12.257812 13.121094 11.230469 12.386719 10.578125 C 11.671875 9.933594 10.589844 10.039062 9.867188 10.90625 C 6.207031 15.300781 4.808594 20.347656 5.539062 26.078125 C 6.851562 25.332031 8.035156 24.667969 7.800781 22.902344 C 7.71875 22.300781 7.984375 21.652344 8.117188 20.847656 M 40.917969 19.992188 C 41.035156 21.785156 41.15625 23.582031 41.277344 25.410156 C 42.652344 25.804688 42.90625 26.308594 42.476562 27.789062 C 42.082031 29.164062 41.152344 30.082031 40.046875 30.90625 C 39.640625 31.207031 39.191406 31.703125 39.121094 32.164062 C 38.832031 34.078125 38.007812 35.484375 36.003906 35.9375 C 36.128906 36.820312 36.585938 37.449219 37.34375 37.453125 C 37.925781 37.457031 38.675781 37.144531 39.066406 36.714844 C 40.699219 34.914062 41.859375 32.804688 42.613281 30.492188 C 43.851562 26.699219 43.910156 22.882812 42.757812 18.996094 C 42.078125 19.292969 41.480469 19.550781 40.917969 19.992188 M 24.027344 34.554688 C 22.890625 34.523438 21.632812 34.003906 20.878906 35.363281 C 25.222656 37.195312 30.714844 35.777344 32.867188 32.011719 C 32.277344 32.144531 31.820312 32.128906 31.515625 32.335938 C 29.308594 33.828125 26.898438 34.609375 24.027344 34.554688 M 13 23.261719 C 13.238281 20.914062 14.007812 18.746094 15.558594 16.980469 C 16.398438 16.027344 16.40625 15.046875 16.289062 13.882812 C 15.324219 14.769531 14.394531 15.679688 13.664062 16.730469 C 12.363281 18.597656 11.953125 20.738281 12.171875 22.992188 C 12.199219 23.25 12.433594 23.492188 12.570312 23.742188 C 12.707031 23.636719 12.84375 23.53125 13 23.261719 Z M 13 23.261719 "/>
<path style=" stroke:none;fill-rule:nonzero;fill:rgb(99.215686%,72.941176%,9.019608%);fill-opacity:1;" d="M 28.851562 23.414062 C 29 23.703125 29.128906 24.007812 29.097656 24.296875 C 29.035156 24.886719 28.886719 25.472656 28.757812 26.136719 C 29.082031 26.136719 29.335938 26.136719 29.78125 26.136719 C 29.574219 26.589844 29.488281 27.140625 29.261719 27.207031 C 28.269531 27.488281 28.285156 28.28125 28.152344 29.035156 C 28.054688 29.59375 27.875 30.140625 27.816406 30.699219 C 27.792969 30.9375 27.933594 31.308594 28.117188 31.410156 C 28.296875 31.511719 28.710938 31.441406 28.867188 31.289062 C 29.183594 30.96875 29.53125 30.578125 29.621094 30.164062 C 29.898438 28.875 30.019531 27.550781 30.292969 26.261719 C 30.382812 25.835938 30.667969 25.242188 31 25.132812 C 31.347656 25.015625 31.859375 25.390625 32.496094 25.621094 C 32.480469 25.628906 32.703125 25.433594 32.957031 25.371094 C 33.777344 25.167969 34.238281 25.625 34.074219 26.449219 C 33.886719 27.386719 33.667969 28.320312 33.53125 29.265625 C 33.496094 29.527344 33.714844 29.820312 33.820312 30.101562 C 34.097656 29.980469 34.519531 29.9375 34.632812 29.726562 C 35.371094 28.328125 36.125 26.910156 35.648438 25.234375 C 35.476562 24.625 35.699219 24.167969 36.269531 24.148438 C 36.554688 24.136719 37.121094 24.652344 37.105469 24.902344 C 37.046875 26.03125 36.789062 27.144531 36.671875 28.269531 C 36.640625 28.585938 36.835938 28.929688 36.925781 29.257812 C 37.21875 29.011719 37.691406 28.808594 37.777344 28.5 C 38.109375 27.308594 38.324219 26.082031 38.574219 24.867188 C 38.785156 23.832031 38.78125 23.832031 40.039062 23.761719 C 39.703125 25.613281 39.375 27.449219 39.023438 29.402344 C 40.542969 28.804688 40.875 27.496094 41.273438 26.226562 C 42.035156 26.257812 42.074219 26.667969 41.941406 27.238281 C 41.632812 28.558594 40.910156 29.613281 39.742188 30.242188 C 38.851562 30.71875 38.496094 31.382812 38.375 32.316406 C 38.230469 33.445312 37.855469 34.480469 36.699219 34.976562 C 35.996094 35.277344 35.183594 35.550781 34.683594 34.757812 C 34.207031 34.007812 34.339844 33.171875 35.023438 32.542969 C 35.648438 31.96875 36.332031 31.457031 36.980469 30.90625 C 37.125 30.78125 37.238281 30.621094 37.316406 30.402344 C 36.3125 31.011719 35.105469 30.671875 34.054688 31.425781 C 32.945312 32.21875 31.792969 31.265625 31.953125 29.835938 C 32.066406 28.800781 32.304688 27.773438 32.488281 26.742188 C 32.363281 26.679688 32.238281 26.613281 32.113281 26.546875 C 31.851562 26.875 31.480469 27.167969 31.355469 27.542969 C 31.03125 28.515625 30.878906 29.546875 30.542969 30.515625 C 29.894531 32.40625 28.613281 33.117188 26.6875 32.808594 C 26.46875 32.769531 26.199219 32.890625 25.984375 32.996094 C 25.671875 33.15625 25.40625 33.414062 25.085938 33.550781 C 23.75 34.125 22.796875 33.410156 22.988281 31.964844 C 23.070312 31.335938 23.277344 30.71875 23.367188 30.089844 C 23.429688 29.667969 23.378906 29.230469 23.378906 28.796875 C 23.234375 28.746094 23.089844 28.695312 22.945312 28.648438 C 22.636719 29.183594 22.21875 29.683594 22.046875 30.257812 C 21.71875 31.34375 21.511719 32.464844 21.300781 33.578125 C 21.179688 34.207031 20.941406 34.597656 20.226562 34.632812 C 19.820312 34.65625 19.402344 34.804688 19.023438 34.972656 C 18.199219 35.339844 17.507812 35.3125 16.980469 34.414062 C 16.847656 34.566406 16.742188 34.695312 16.628906 34.816406 C 16.074219 35.425781 15.390625 36.273438 14.613281 35.746094 C 14.117188 35.414062 13.800781 34.269531 13.960938 33.621094 C 14.28125 32.316406 14.855469 31.027344 15.550781 29.867188 C 16.316406 28.597656 17.8125 28.828125 19.210938 28.476562 C 18.933594 29.894531 18.65625 31.160156 18.457031 32.4375 C 18.402344 32.808594 18.574219 33.214844 18.640625 33.605469 C 19.015625 33.34375 19.601562 33.15625 19.722656 32.804688 C 20.1875 31.433594 20.476562 30.003906 20.898438 28.617188 C 20.988281 28.328125 21.339844 28.070312 21.632812 27.917969 C 21.789062 27.839844 22.082031 28.023438 22.457031 28.128906 C 22.457031 28.128906 22.589844 27.898438 22.769531 27.851562 C 23.269531 27.722656 23.894531 27.460938 24.269531 27.648438 C 24.632812 27.835938 24.929688 28.511719 24.929688 28.972656 C 24.933594 29.8125 24.667969 30.648438 24.566406 31.492188 C 24.542969 31.699219 24.675781 32.09375 24.796875 32.117188 C 25.027344 32.167969 25.476562 32.078125 25.53125 31.933594 C 25.996094 30.6875 26.394531 29.417969 26.8125 28.152344 C 25.484375 27.136719 27.136719 26.792969 27.296875 26.117188 C 27.488281 25.308594 27.800781 24.523438 28.125 23.757812 C 28.199219 23.585938 28.542969 23.53125 28.851562 23.414062 M 15.40625 33.65625 C 15.957031 34.546875 16.558594 34.03125 16.738281 33.503906 C 17.148438 32.289062 17.351562 31 17.652344 29.671875 C 16.125 29.878906 15.351562 31.304688 15.40625 33.65625 M 35.917969 34.101562 C 36.9375 33.761719 36.976562 32.925781 36.953125 31.851562 C 36.386719 32.351562 35.882812 32.722656 35.472656 33.183594 C 35.140625 33.554688 35.117188 33.972656 35.917969 34.101562 Z M 35.917969 34.101562 "/>
<path style=" stroke:none;fill-rule:nonzero;fill:rgb(2.352941%,2.352941%,2.352941%);fill-opacity:1;" d="M 33.996094 38.34375 C 34.402344 39.382812 34.128906 40.21875 33.511719 40.988281 C 31.8125 43.105469 29.929688 43.460938 27.617188 42.195312 C 27.234375 41.988281 26.667969 42.042969 26.195312 42.089844 C 20.265625 42.695312 15.265625 40.761719 10.980469 36.691406 C 9.90625 35.667969 9.660156 34.640625 10.257812 33.234375 C 10.5625 33.601562 10.832031 33.941406 11.105469 34.273438 C 14.957031 38.898438 19.910156 40.910156 25.886719 40.492188 C 26.449219 40.453125 26.796875 40.320312 26.945312 39.621094 C 27.21875 38.355469 28.074219 37.453125 29.390625 37.253906 C 31.015625 37.011719 32.738281 36.597656 33.996094 38.34375 Z M 33.996094 38.34375 "/>
<path style=" stroke:none;fill-rule:nonzero;fill:rgb(99.215686%,72.941176%,9.411765%);fill-opacity:1;" d="M 19.929688 17.792969 C 20.234375 15.515625 20.820312 13.457031 22.558594 11.878906 C 21.296875 11.761719 19.785156 12.597656 19.03125 13.78125 C 18.371094 14.816406 18.378906 15.828125 19.191406 16.800781 C 18.03125 17.070312 16.964844 16.386719 17.085938 15.289062 C 17.179688 14.46875 17.542969 13.539062 18.09375 12.941406 C 19.21875 11.71875 20.574219 10.761719 22.390625 10.792969 C 23.34375 10.808594 24.355469 10.523438 25.242188 10.753906 C 27.636719 11.375 28.292969 13.832031 26.621094 15.660156 C 26.101562 16.230469 25.433594 16.660156 24.78125 17.195312 C 25.921875 17.785156 25.585938 18.867188 25.632812 19.859375 C 25.652344 20.238281 25.792969 20.703125 26.050781 20.949219 C 26.175781 21.070312 26.695312 20.785156 27.039062 20.679688 C 27.273438 21.363281 26.699219 22.339844 25.785156 22.605469 C 24.976562 22.839844 24.390625 22.460938 24.175781 21.519531 C 24.042969 20.929688 24.003906 20.324219 23.886719 19.730469 C 23.675781 18.675781 23.019531 18.078125 21.832031 17.886719 C 21.664062 18.816406 21.523438 19.710938 21.339844 20.597656 C 21.039062 22.039062 20.472656 23.328125 19.039062 23.980469 C 17.527344 24.671875 16.4375 23.929688 16.601562 22.433594 C 17.046875 22.5625 17.609375 22.925781 17.925781 22.773438 C 18.414062 22.539062 18.929688 22.015625 19.09375 21.507812 C 19.472656 20.332031 19.648438 19.09375 19.929688 17.792969 M 22.992188 12.890625 C 22.65625 14.039062 22.316406 15.1875 21.960938 16.410156 C 24.390625 16.378906 25.941406 15.09375 25.570312 13.488281 C 25.421875 12.855469 24.6875 12.332031 24.132812 11.863281 C 24.074219 11.808594 23.433594 12.4375 22.992188 12.890625 Z M 22.992188 12.890625 "/>
<path style=" stroke:none;fill-rule:nonzero;fill:rgb(99.215686%,72.941176%,9.019608%);fill-opacity:1;" d="M 38.632812 16.261719 C 38.488281 16.9375 38.289062 17.519531 38.246094 18.117188 C 38.179688 19.050781 37.761719 19.550781 36.601562 19.578125 C 36.882812 17.90625 37.15625 16.265625 37.433594 14.628906 C 37.289062 14.558594 37.148438 14.492188 37.003906 14.421875 C 36.75 14.769531 36.386719 15.078125 36.265625 15.464844 C 35.863281 16.75 35.523438 18.054688 35.214844 19.367188 C 35.078125 19.945312 34.871094 20.3125 34.214844 20.390625 C 33.699219 20.453125 33.203125 20.769531 32.695312 20.789062 C 32.097656 20.808594 31.492188 20.628906 30.886719 20.535156 C 30.902344 20.441406 30.914062 20.351562 30.925781 20.261719 C 30.472656 20.648438 30.066406 21.105469 29.5625 21.402344 C 28.742188 21.886719 28.066406 21.550781 27.949219 20.605469 C 27.683594 18.445312 28.3125 16.515625 30.003906 15.175781 C 30.765625 14.574219 31.953125 14.507812 33.195312 14.121094 C 32.949219 15.421875 32.6875 16.507812 32.554688 17.609375 C 32.488281 18.179688 32.648438 18.773438 32.707031 19.359375 C 33.136719 18.894531 33.753906 18.503906 33.957031 17.953125 C 34.351562 16.898438 34.511719 15.757812 34.777344 14.65625 C 34.84375 14.382812 34.886719 13.945312 35.050781 13.882812 C 35.640625 13.667969 36.277344 13.550781 36.902344 13.449219 C 37.5 13.351562 38.105469 13.320312 38.707031 13.261719 C 38.722656 13.359375 38.738281 13.453125 38.75 13.550781 C 38.8125 13.519531 38.890625 13.503906 38.933594 13.457031 C 39.5 12.8125 40.167969 12.199219 41.035156 12.683594 C 41.855469 13.144531 41.640625 14.035156 41.5 14.8125 C 41.40625 15.335938 41.242188 15.855469 41.210938 16.378906 C 41.195312 16.6875 41.375 17.011719 41.464844 17.324219 C 41.785156 17.148438 42.242188 17.050781 42.402344 16.78125 C 42.777344 16.15625 43.011719 15.449219 43.6875 14.410156 C 43.773438 14.675781 43.875 14.933594 43.941406 15.203125 C 44.292969 16.605469 42.355469 18.855469 40.914062 18.820312 C 39.972656 18.796875 39.617188 18.320312 39.671875 17.496094 C 39.722656 16.683594 39.90625 15.882812 39.996094 15.070312 C 40.039062 14.6875 40.003906 14.292969 40.003906 13.90625 C 39.839844 13.871094 39.675781 13.835938 39.511719 13.800781 C 39.222656 14.589844 38.933594 15.382812 38.632812 16.261719 M 29.679688 17.039062 C 29.546875 17.660156 29.351562 18.273438 29.3125 18.898438 C 29.296875 19.1875 29.589844 19.738281 29.746094 19.738281 C 30.070312 19.742188 30.605469 19.523438 30.683594 19.277344 C 31.070312 18.023438 31.34375 16.734375 31.683594 15.339844 C 30.429688 15.40625 30.121094 16.1875 29.679688 17.039062 Z M 29.679688 17.039062 "/>
<path style=" stroke:none;fill-rule:nonzero;fill:rgb(3.137255%,3.137255%,3.137255%);fill-opacity:1;" d="M 16.226562 11.507812 C 15.371094 11.253906 15.609375 10.9375 16.132812 10.667969 C 16.792969 10.332031 17.496094 10.078125 18.136719 9.707031 C 18.4375 9.535156 18.628906 9.175781 18.871094 8.902344 C 18.804688 8.835938 18.738281 8.773438 18.671875 8.707031 C 17.746094 9.128906 16.828125 9.570312 15.886719 9.957031 C 15.671875 10.042969 15.378906 9.933594 15.121094 9.917969 C 15.269531 9.679688 15.359375 9.335938 15.574219 9.222656 C 16.546875 8.714844 17.554688 8.269531 18.550781 7.800781 C 18.496094 7.667969 18.445312 7.539062 18.390625 7.410156 C 17.832031 7.613281 17.269531 7.808594 16.714844 8.027344 C 16.253906 8.210938 15.8125 8.457031 15.339844 8.597656 C 15.089844 8.671875 14.789062 8.578125 14.507812 8.5625 C 14.667969 8.335938 14.777344 8.003906 14.996094 7.894531 C 15.902344 7.449219 16.839844 7.074219 17.75 6.425781 C 17.453125 6.402344 17.121094 6.289062 16.859375 6.375 C 16.121094 6.613281 15.421875 6.964844 14.683594 7.207031 C 14.445312 7.285156 14.140625 7.144531 13.863281 7.105469 C 14.003906 6.894531 14.097656 6.582031 14.292969 6.492188 C 15.96875 5.738281 17.621094 4.808594 19.507812 6.046875 C 19.792969 6.234375 20.378906 5.992188 20.820312 5.90625 C 27.796875 4.542969 33.710938 6.46875 38.574219 11.640625 C 38.71875 11.792969 38.851562 11.964844 38.980469 12.132812 C 39.015625 12.183594 39.015625 12.265625 39.078125 12.53125 C 38.210938 12.386719 37.394531 12.785156 36.632812 12.023438 C 33.269531 8.683594 29.175781 7.082031 24.453125 7.097656 C 23.640625 7.101562 22.824219 7.226562 22.015625 7.328125 C 21.015625 7.449219 20.21875 7.679688 19.886719 8.914062 C 19.707031 9.582031 18.867188 10.132812 18.222656 10.59375 C 17.65625 10.996094 16.949219 11.199219 16.226562 11.507812 Z M 16.226562 11.507812 "/>
<path style=" stroke:none;fill-rule:nonzero;fill:rgb(99.215686%,72.941176%,9.411765%);fill-opacity:1;" d="M 5.980469 36.703125 C 6.511719 35.824219 7.09375 35.019531 7.398438 34.121094 C 7.710938 33.191406 7.765625 32.171875 7.910156 31.1875 C 8.21875 29.117188 8.875 27.207031 10.53125 25.652344 C 7.375 25.929688 5.761719 28.367188 7.015625 30.730469 C 5.734375 31.003906 4.691406 29.949219 4.941406 28.636719 C 5.558594 25.40625 11.558594 23.121094 14.191406 25.109375 C 15.589844 26.164062 15.871094 28.042969 14.789062 29.582031 C 13.574219 31.3125 11.910156 32.28125 9.652344 32.285156 C 9.492188 33.222656 9.34375 34.160156 9.167969 35.089844 C 8.824219 36.863281 7.421875 38.125 5.929688 38.011719 C 4.726562 37.925781 4.449219 37.585938 4.527344 36.402344 C 4.980469 36.511719 5.445312 36.621094 5.980469 36.703125 M 10.488281 30.835938 C 11.34375 30.308594 12.363281 29.9375 13.007812 29.226562 C 14 28.136719 13.664062 26.597656 12.527344 25.921875 C 12.003906 25.613281 11.636719 25.601562 11.210938 26.183594 C 10.238281 27.511719 10.21875 29.082031 9.917969 30.585938 C 9.90625 30.648438 10.1875 30.773438 10.488281 30.835938 Z M 10.488281 30.835938 "/>
<path style=" stroke:none;fill-rule:nonzero;fill:rgb(1.960784%,1.960784%,1.960784%);fill-opacity:1;" d="M 8.105469 20.9375 C 7.984375 21.652344 7.71875 22.300781 7.800781 22.902344 C 8.035156 24.667969 6.851562 25.332031 5.539062 26.078125 C 4.808594 20.347656 6.207031 15.300781 9.867188 10.90625 C 10.589844 10.039062 11.671875 9.933594 12.386719 10.578125 C 13.121094 11.230469 13.113281 12.257812 12.308594 13.109375 C 10.214844 15.316406 8.769531 17.863281 8.105469 20.9375 Z M 8.105469 20.9375 "/>
<path style=" stroke:none;fill-rule:nonzero;fill:rgb(1.960784%,1.960784%,1.960784%);fill-opacity:1;" d="M 40.898438 19.898438 C 41.480469 19.550781 42.078125 19.292969 42.757812 18.996094 C 43.910156 22.882812 43.851562 26.699219 42.613281 30.492188 C 41.859375 32.804688 40.699219 34.914062 39.066406 36.714844 C 38.675781 37.144531 37.925781 37.457031 37.34375 37.453125 C 36.585938 37.449219 36.128906 36.820312 36.003906 35.9375 C 38.007812 35.484375 38.832031 34.078125 39.121094 32.164062 C 39.191406 31.703125 39.640625 31.207031 40.046875 30.90625 C 41.152344 30.082031 42.082031 29.164062 42.476562 27.789062 C 42.90625 26.308594 42.652344 25.804688 41.277344 25.410156 C 41.15625 23.582031 41.035156 21.785156 40.898438 19.898438 Z M 40.898438 19.898438 "/>
<path style=" stroke:none;fill-rule:nonzero;fill:rgb(5.882353%,48.235294%,28.235294%);fill-opacity:1;" d="M 24.128906 34.558594 C 26.898438 34.609375 29.308594 33.828125 31.515625 32.335938 C 31.820312 32.128906 32.277344 32.144531 32.867188 32.011719 C 30.714844 35.777344 25.222656 37.195312 20.878906 35.363281 C 21.632812 34.003906 22.890625 34.523438 24.128906 34.558594 Z M 24.128906 34.558594 "/>
<path style=" stroke:none;fill-rule:nonzero;fill:rgb(5.882353%,48.627451%,28.235294%);fill-opacity:1;" d="M 12.992188 23.34375 C 12.84375 23.53125 12.707031 23.636719 12.570312 23.742188 C 12.433594 23.492188 12.199219 23.25 12.171875 22.992188 C 11.953125 20.738281 12.363281 18.597656 13.664062 16.730469 C 14.394531 15.679688 15.324219 14.769531 16.289062 13.882812 C 16.40625 15.046875 16.398438 16.027344 15.558594 16.980469 C 14.007812 18.746094 13.238281 20.914062 12.992188 23.34375 Z M 12.992188 23.34375 "/>
<path style=" stroke:none;fill-rule:nonzero;fill:rgb(99.607843%,98.823529%,96.078431%);fill-opacity:1;" d="M 15.390625 33.566406 C 15.351562 31.304688 16.125 29.878906 17.652344 29.671875 C 17.351562 31 17.148438 32.289062 16.738281 33.503906 C 16.558594 34.03125 15.957031 34.546875 15.390625 33.566406 Z M 15.390625 33.566406 "/>
<path style=" stroke:none;fill-rule:nonzero;fill:rgb(99.215686%,96.862745%,89.803922%);fill-opacity:1;" d="M 35.839844 34.109375 C 35.117188 33.972656 35.140625 33.554688 35.472656 33.183594 C 35.882812 32.722656 36.386719 32.351562 36.953125 31.851562 C 36.976562 32.925781 36.9375 33.761719 35.839844 34.109375 Z M 35.839844 34.109375 "/>
<path style=" stroke:none;fill-rule:nonzero;fill:rgb(99.607843%,99.215686%,97.254902%);fill-opacity:1;" d="M 23.027344 12.820312 C 23.433594 12.4375 24.074219 11.808594 24.132812 11.863281 C 24.6875 12.332031 25.421875 12.855469 25.570312 13.488281 C 25.941406 15.09375 24.390625 16.378906 21.960938 16.410156 C 22.316406 15.1875 22.65625 14.039062 23.027344 12.820312 Z M 23.027344 12.820312 "/>
<path style=" stroke:none;fill-rule:nonzero;fill:rgb(99.607843%,98.431373%,94.901961%);fill-opacity:1;" d="M 29.707031 16.960938 C 30.121094 16.1875 30.429688 15.40625 31.683594 15.339844 C 31.34375 16.734375 31.070312 18.023438 30.683594 19.277344 C 30.605469 19.523438 30.070312 19.742188 29.746094 19.738281 C 29.589844 19.738281 29.296875 19.1875 29.3125 18.898438 C 29.351562 18.273438 29.546875 17.660156 29.707031 16.960938 Z M 29.707031 16.960938 "/>
<path style=" stroke:none;fill-rule:nonzero;fill:rgb(99.607843%,98.823529%,96.862745%);fill-opacity:1;" d="M 10.410156 30.851562 C 10.1875 30.773438 9.90625 30.648438 9.917969 30.585938 C 10.21875 29.082031 10.238281 27.511719 11.210938 26.183594 C 11.636719 25.601562 12.003906 25.613281 12.527344 25.921875 C 13.664062 26.597656 14 28.136719 13.007812 29.226562 C 12.363281 29.9375 11.34375 30.308594 10.410156 30.851562 Z M 10.410156 30.851562 "/>
</g>
</svg>
